<?xml version="1.0" encoding="utf-8"?>
<!-- Generator: Adobe Illustrator 25.0.0, SVG Export Plug-In . SVG Version: 6.00 Build 0)  -->
<svg width='40px' height='40px' version="1.1"
	 id="svg8" xmlns:cc="http://creativecommons.org/ns#" xmlns:dc="http://purl.org/dc/elements/1.1/" xmlns:rdf="http://www.w3.org/1999/02/22-rdf-syntax-ns#" xmlns:sodipodi="http://sodipodi.sourceforge.net/DTD/sodipodi-0.dtd" xmlns:svg="http://www.w3.org/2000/svg"
	 xmlns="http://www.w3.org/2000/svg" xmlns:xlink="http://www.w3.org/1999/xlink" x="0px" y="0px" viewBox="0 0 40 40"
	 style="enable-background:new 0 0 40 40;" xml:space="preserve">
<style type="text/css">
	.st0{fill:#E87D0D;}
	.st1{fill:#FFFFFF;}
</style>
<g id="Surfaces">
	<g id="Drawing_Surface">
		<g id="Outline_no_shadow">
			<path class="st0" d="M7.1,0.5h25.8c3.9,0,7.1,3.2,7.1,7.1v24.8c0,3.9-3.2,7.1-7.1,7.1H7.1c-3.9,0-7.1-3.2-7.1-7.1V7.6
				C0,3.7,3.2,0.5,7.1,0.5z"/>
		</g>
	</g>
</g>
<g id="g1794" transform="matrix(0.04039667,0,0,0.04039667,81.604348,-55.892386)">
	<g id="g1788" transform="matrix(3.3451117,0,0,3.3451075,277.7359,1100.2048)">
		<path id="path1786" class="st1" d="M-534.1,244.5c0.5-7.9,4.2-14.8,10.1-19.7c5.7-4.8,13.4-7.8,21.7-7.8s16,3,21.7,7.8
			c5.8,4.9,9.7,11.8,10.1,19.7c0.5,8-2.8,15.5-8.5,21.1c-5.8,5.7-14.1,9.2-23.3,9.2c-9.2,0-17.5-3.5-23.3-9.2
			C-531.3,260.1-534.5,252.6-534.1,244.5L-534.1,244.5z"/>
	</g>
	<g id="g1792" transform="matrix(3.3451117,0,0,3.3451075,277.7359,1100.2048)">
		<path id="path1790" class="st1" d="M-584.7,260.4c0.1,3.1,1,9,2.5,13.7c3.1,9.8,8.3,19,15.6,27.1c7.5,8.3,16.7,14.9,27.4,19.6
			c11.2,5,23.3,7.5,36,7.5c12.6,0,24.7-2.6,35.9-7.6c10.7-4.8,19.9-11.5,27.4-19.7c7.3-8,12.6-17.3,15.6-27.1c1.5-5,2.5-10,3-15.2
			c0.4-5,0.2-10-0.5-15c-1.4-9.8-4.8-18.9-9.9-27.3c-4.8-7.7-10.9-14.4-18.2-20.1l0,0l-73.6-56.5c-0.1-0.1-0.1-0.1-0.2-0.2
			c-4.8-3.7-12.9-3.7-18.3,0c-5.3,3.8-6,9.9-1.2,13.9l0,0l30.7,24.9l-93.5,0.1c-0.1,0-0.1,0-0.1,0c-7.8,0-15.2,5.1-16.6,11.5
			c-1.5,6.5,3.7,11.9,11.7,12l0,0l47.4-0.1l-84.7,65c-0.1,0.1-0.2,0.2-0.4,0.3c-8,6.1-10.6,16.3-5.5,22.7c5.1,6.5,16,6.6,24,0
			l46.2-37.8C-584.1,252.2-584.8,257.4-584.7,260.4L-584.7,260.4z M-466.1,277.5c-9.5,9.7-22.9,15.2-37.2,15.2
			c-14.5,0-27.7-5.4-37.3-15.1c-4.6-4.7-8-10.1-10.2-15.9c-2.1-5.7-2.9-11.7-2.3-17.8c0.5-6,2.3-11.7,5.1-16.7s6.6-9.6,11.3-13.5
			c9.2-7.5,21.1-11.7,33.3-11.7c12.3,0,24.1,4.1,33.3,11.6c4.7,3.8,8.5,8.4,11.3,13.5c2.8,5.2,4.6,10.8,5.2,16.7
			c0.5,6.1-0.3,12.1-2.3,17.8C-458.1,267.3-461.4,272.7-466.1,277.5L-466.1,277.5z"/>
	</g>
</g>
</svg>
