<?xml version="1.0" encoding="utf-8"?>
<!-- Generator: Adobe Illustrator 24.3.0, SVG Export Plug-In . SVG Version: 6.00 Build 0)  -->
<svg width='40px' height='40px' version="1.1" id="Layer_1" xmlns="http://www.w3.org/2000/svg" xmlns:xlink="http://www.w3.org/1999/xlink" x="0px" y="0px"
	 viewBox="0 0 48 48" style="enable-background:new 0 0 48 48;" xml:space="preserve">
<style type="text/css">
	.st0{fill:#5C6BC0;}
	.st1{fill-rule:evenodd;clip-rule:evenodd;fill:#283593;}
	.st2{fill-rule:evenodd;clip-rule:evenodd;fill:#FFFFFF;}
</style>
<g id="Surfaces">
	<g id="Drawing_Surface">
		<g id="Outline_no_shadow">
			<path class="st0" d="M8.5,0.6h31c4.7,0,8.5,3.8,8.5,8.5v29.8c0,4.7-3.8,8.5-8.5,8.5h-31c-4.7,0-8.5-3.8-8.5-8.5V9.1
				C0,4.4,3.8,0.6,8.5,0.6z"/>
		</g>
	</g>
</g>
<g>
	<path class="st1" d="M22.9,2.4c0.7-0.4,1.6-0.4,2.3,0c3.5,2,14,7.9,17.5,9.8c0.7,0.4,1.1,1.1,1.1,1.9v19.6c0,0.8-0.4,1.5-1.1,1.9
		l-17.5,9.8c-0.7,0.4-1.6,0.4-2.3,0L5.4,35.7c-0.7-0.4-1.1-1.1-1.1-1.9V14.2c0-0.8,0.4-1.5,1.1-1.9C8.9,10.3,19.4,4.4,22.9,2.4z"/>
	<path class="st2" d="M24,9.4c8,0,14.6,6.5,14.6,14.6S32,38.6,24,38.6S9.4,32,9.4,24S16,9.4,24,9.4z M24,16.7c4,0,7.3,3.3,7.3,7.3
		S28,31.3,24,31.3S16.7,28,16.7,24S20,16.7,24,16.7z"/>
	<path class="st1" d="M43.2,12.8c0.5,0.5,0.5,1.3,0.5,1.9c0,4,0,15.2,0,19.1c0,0.4-0.1,0.8-0.3,1.2L23.6,24L43.2,12.8z"/>
</g>
</svg>
